<svg width="32" height="33" viewBox="0 0 32 33" fill="none" xmlns="http://www.w3.org/2000/svg">
<g clip-path="url(#clip0_4_2566)">
<path d="M24.0002 5.83333H8.00016C6.5274 5.83333 5.3335 7.02724 5.3335 8.49999V24.5C5.3335 25.9728 6.5274 27.1667 8.00016 27.1667H24.0002C25.4729 27.1667 26.6668 25.9728 26.6668 24.5V8.49999C26.6668 7.02724 25.4729 5.83333 24.0002 5.83333Z" stroke="#1A194D" stroke-width="2" stroke-linecap="round" stroke-linejoin="round"/>
<path d="M10.6665 21.8333V21.8467" stroke="#1A194D" stroke-width="2" stroke-linecap="round" stroke-linejoin="round"/>
<path d="M10.6665 16.5V16.5133" stroke="#1A194D" stroke-width="2" stroke-linecap="round" stroke-linejoin="round"/>
<path d="M10.6665 11.1667V11.18" stroke="#1A194D" stroke-width="2" stroke-linecap="round" stroke-linejoin="round"/>
<path d="M21.3335 21.8333V21.8467" stroke="#1A194D" stroke-width="2" stroke-linecap="round" stroke-linejoin="round"/>
<path d="M21.3335 16.5V16.5133" stroke="#1A194D" stroke-width="2" stroke-linecap="round" stroke-linejoin="round"/>
<path d="M21.3335 11.1667V11.18" stroke="#1A194D" stroke-width="2" stroke-linecap="round" stroke-linejoin="round"/>
<path d="M16 11.1667V11.18" stroke="#1A194D" stroke-width="2" stroke-linecap="round" stroke-linejoin="round"/>
<path d="M16 21.8333V21.8467" stroke="#1A194D" stroke-width="2" stroke-linecap="round" stroke-linejoin="round"/>
</g>
<defs>
<clipPath id="clip0_4_2566">
<rect width="32" height="32" fill="white" transform="translate(0 0.5)"/>
</clipPath>
</defs>
</svg>
